# xmcd
# Copyright (C) 1995-1998 Ti Kan
#
# Track frame offsets:
#       150
#       18732
#       39525
#       61325
#       76595
#       98347
#       110685
#       124772
#       144787
#       147677
#
# Disc length: 2182 seconds
#
# Revision: 0
# Processed by: cddbd v1.4PL0 Copyright (c) Steve Scherf et al.
# Submitted via: CD-Transfer v1.0
#
DISCID=8008840a
DTITLE=Jasmin Schmid - Cover Stories
DYEAR=2002
DGENRE=
TTITLE0=Shoo-Bee-Doo
TTITLE1=You've Got A Friend
TTITLE2=For You I Will
TTITLE3=Shattered Dreams
TTITLE4=In Too Deep
TTITLE5=I'm On Fire
TTITLE6=Sombody
TTITLE7=I Don't Wanna Miss A Thing
TTITLE8=Shoo-Bee-Doo (Reprise)
TTITLE9=The Man With The Child In His Eyes
EXTD=
EXTT0=
EXTT1=
EXTT2=
EXTT3=
EXTT4=
EXTT5=
EXTT6=
EXTT7=
EXTT8=
EXTT9=
PLAYORDER=
